<?xml version="1.0" standalone="no"?>
<!DOCTYPE svg PUBLIC "-//W3C//DTD SVG 20010904//EN"
 "http://www.w3.org/TR/2001/REC-SVG-20010904/DTD/svg10.dtd">
<svg version="1.0" xmlns="http://www.w3.org/2000/svg"
 width="1024.000000pt" height="1024.000000pt" viewBox="0 0 1024.000000 1024.000000"
 preserveAspectRatio="xMidYMid meet">
<metadata>
Created by potrace 1.14, written by Peter Selinger 2001-2017
</metadata>
<g transform="translate(0.000000,1024.000000) scale(0.100000,-0.100000)"
fill="#000000" stroke="none">
<path d="M0 5120 l0 -5120 5120 0 5120 0 0 5120 0 5120 -5120 0 -5120 0 0
-5120z m5115 3865 c154 -32 319 -143 423 -284 88 -117 120 -206 142 -386 12
-96 15 -562 5 -655 -20 -166 -81 -263 -230 -360 -36 -23 -65 -45 -65 -49 1 -3
35 -31 77 -61 106 -76 162 -151 194 -255 23 -77 30 -182 30 -475 0 -426 -17
-553 -93 -690 -177 -318 -495 -448 -876 -360 -215 51 -382 185 -476 384 -51
106 -67 201 -73 434 l-6 202 261 0 260 0 4 -182 c3 -165 5 -187 25 -223 47
-87 117 -129 218 -129 56 0 79 5 115 24 53 30 105 96 120 151 8 27 10 163 8
408 -3 348 -5 368 -25 412 -25 54 -70 94 -121 109 -20 6 -85 13 -144 17 l-108
6 0 222 0 223 83 7 c181 14 248 42 287 120 25 50 25 51 28 372 2 211 -1 336
-8 363 -24 88 -126 160 -229 160 -107 0 -180 -42 -223 -127 -21 -43 -23 -65
-28 -228 l-5 -180 -255 0 -255 0 1 190 c1 222 15 301 73 421 105 217 295 365
536 419 81 18 244 18 330 0z m-1348 -1437 c-4 -1553 -1 -1472 -61 -1632 -93
-247 -307 -437 -571 -508 -114 -30 -346 -30 -457 0 -131 36 -253 110 -385 236
l-62 59 199 159 199 159 48 -37 c197 -151 427 -106 530 103 l38 77 3 1403 2
1403 261 0 260 0 -4 -1422z m3393 1393 c208 -57 363 -174 471 -358 83 -143
117 -309 126 -618 10 -390 -30 -611 -144 -794 -105 -168 -235 -271 -413 -327
-80 -26 -251 -44 -417 -44 l-163 0 -2 -692 -3 -693 -255 0 -255 0 -3 1778 -2
1778 487 -3 c472 -4 491 -5 573 -27z m-2841 -3841 c133 -38 216 -86 320 -185
181 -172 260 -386 261 -707 l0 -128 -255 0 -255 0 0 88 c0 122 -16 207 -51
279 -70 144 -217 205 -380 157 -94 -28 -134 -71 -177 -193 -15 -41 -17 -154
-20 -1061 -2 -733 0 -1032 8 -1075 17 -88 65 -172 118 -206 96 -61 249 -59
354 5 101 61 137 147 145 353 l6 133 255 0 255 0 -6 -178 c-4 -152 -9 -189
-31 -265 -44 -148 -110 -259 -218 -367 -168 -168 -383 -251 -613 -235 -121 8
-249 34 -332 68 -221 90 -394 312 -438 562 -22 126 -23 2223 -1 2337 64 331
315 576 654 638 85 16 318 4 401 -20z m2051 0 c41 -11 121 -43 177 -71 204
-101 340 -268 415 -511 l23 -73 3 -1080 c2 -711 -1 -1103 -8 -1147 -57 -373
-339 -643 -729 -699 -199 -28 -431 25 -597 139 -183 124 -293 279 -347 489
l-22 88 0 1085 c0 1007 1 1090 18 1155 83 326 297 547 607 625 113 29 116 29
255 25 93 -3 151 -10 205 -25z"/>
<path d="M6620 7884 l0 -606 183 5 c200 5 251 16 329 67 49 33 84 79 112 149
36 93 47 578 16 721 -24 106 -82 190 -160 230 -57 29 -143 40 -317 40 l-163 0
0 -606z"/>
<path d="M6035 4607 c-144 -48 -216 -134 -236 -285 -6 -50 -9 -424 -7 -1057
l3 -980 24 -60 c56 -142 218 -225 382 -195 142 26 232 107 268 240 9 34 11
300 9 1075 l-3 1030 -33 67 c-36 73 -80 115 -159 150 -59 27 -189 34 -248 15z"/>
</g>
</svg>
