<?xml version="1.0" standalone="no"?>
<!DOCTYPE svg PUBLIC "-//W3C//DTD SVG 20010904//EN"
 "http://www.w3.org/TR/2001/REC-SVG-20010904/DTD/svg10.dtd">
<svg version="1.0" xmlns="http://www.w3.org/2000/svg"
 width="1024.000000pt" height="1024.000000pt" viewBox="0 0 1024.000000 1024.000000"
 preserveAspectRatio="xMidYMid meet">
<metadata>
Created by potrace 1.14, written by Peter Selinger 2001-2017
</metadata>
<g transform="translate(0.000000,1024.000000) scale(0.100000,-0.100000)"
fill="#000000" stroke="none">
<path d="M0 5120 l0 -5120 5120 0 5120 0 0 5120 0 5120 -5120 0 -5120 0 0
-5120z m3860 1215 c106 -28 241 -153 275 -254 23 -70 34 -181 34 -336 1 -228
-24 -297 -129 -368 l-48 -32 56 -45 c109 -87 127 -158 119 -470 -6 -266 -27
-336 -132 -443 -80 -82 -170 -117 -301 -117 -138 0 -255 48 -333 136 -81 92
-110 192 -111 377 l0 87 150 0 150 0 0 -97 c0 -113 15 -154 69 -190 66 -44
157 -20 195 53 19 36 21 57 21 244 0 143 -4 216 -13 242 -20 56 -59 79 -147
85 l-75 6 0 127 0 128 68 7 c156 16 166 35 167 295 0 207 -7 235 -68 267 -45
23 -120 22 -155 -3 -48 -36 -62 -78 -62 -186 l0 -98 -152 0 -151 0 6 123 c9
178 40 258 132 349 110 109 282 154 435 113z m2480 -3 c78 -21 165 -77 218
-140 77 -92 107 -179 118 -336 l7 -106 -152 0 -151 0 0 66 c0 37 -5 85 -12
107 -17 55 -73 112 -124 126 -56 15 -134 -2 -168 -36 -51 -51 -51 -53 -51
-713 0 -614 0 -615 22 -656 33 -61 65 -79 143 -78 134 1 189 66 190 227 l0 78
148 -3 147 -3 -2 -105 c-3 -118 -23 -192 -73 -271 -45 -69 -126 -141 -204
-179 -58 -29 -82 -35 -158 -38 -220 -11 -376 71 -462 241 -54 105 -58 173 -54
864 4 573 4 590 26 653 81 242 332 370 592 302z m1174 2 c182 -47 318 -185
355 -362 7 -36 11 -256 11 -670 0 -673 0 -679 -58 -786 -37 -70 -128 -158
-199 -191 -84 -40 -147 -55 -240 -55 -222 0 -413 144 -469 355 -21 79 -20
1288 1 1370 66 252 338 406 599 339z m-4457 -836 c-3 -896 -2 -870 -55 -974
-32 -62 -117 -150 -183 -189 -83 -49 -148 -65 -255 -65 -109 0 -188 21 -260
70 -55 39 -124 99 -124 109 0 9 215 181 225 181 3 0 21 -11 38 -24 104 -78
240 -47 293 67 l24 52 0 803 0 802 150 0 151 0 -4 -832z m1964 814 c163 -45
273 -163 316 -339 24 -99 25 -434 1 -519 -52 -187 -162 -307 -322 -350 -28 -8
-111 -17 -183 -21 l-133 -6 0 -399 0 -398 -145 0 -145 0 0 1025 0 1025 273 0
c233 0 282 -3 338 -18z m459 -1882 l0 -150 -145 0 -145 0 0 150 0 150 145 0
145 0 0 -150z"/>
<path d="M7332 6049 c-55 -13 -116 -71 -131 -124 -15 -56 -15 -1174 0 -1230
35 -127 214 -177 319 -88 68 56 65 27 68 667 3 605 0 661 -40 711 -42 54 -136
82 -216 64z"/>
<path d="M4700 5710 l0 -353 114 5 c146 5 197 28 236 103 24 48 25 55 25 245
0 190 -1 197 -25 245 -39 74 -86 95 -234 102 l-116 6 0 -353z"/>
</g>
</svg>
